<svg width="16" height="17" viewBox="0 0 16 17" fill="none" xmlns="http://www.w3.org/2000/svg">
<path fill-rule="evenodd" clip-rule="evenodd" d="M14.8911 16.163C15.1448 16.4167 15.5562 16.4167 15.8099 16.163C16.0636 15.9093 16.0636 15.498 15.8099 15.2442L8.9191 8.35345L15.8098 1.46275C16.0635 1.20904 16.0635 0.797696 15.8098 0.543986C15.5561 0.290276 15.1447 0.290276 14.891 0.543986L8.00034 7.43468L1.10964 0.543981C0.855927 0.290271 0.444581 0.290271 0.190871 0.543981C-0.0628394 0.797692 -0.0628392 1.20904 0.190871 1.46275L7.08157 8.35345L0.190771 15.2442C-0.0629392 15.498 -0.0629394 15.9093 0.190771 16.163C0.444481 16.4167 0.855827 16.4167 1.10954 16.163L8.00034 9.27222L14.8911 16.163Z" fill="#894083"/>
</svg>
